{"title":"Surrogates 2009 .SWESUB.DVDRip.XviD-Zen_Bud","uid":5647462,"size":736793446,"categoryP":"video","categoryS":"movies","magnet":"?xt=urn:btih:9564cc1c2429b70dd12665f2e6506b886563bb14&amp;dn=Surrogates+2009+.SWESUB.DVDRip.XviD-Zen_Bud&amp;tr=udp%3A%2F%2Ftracker.openbittorrent.com%3A80&amp;tr=udp%3A%2F%2Fopen.demonii.com%3A1337&amp;tr=udp%3A%2F%2Ftracker.coppersurfer.tk%3A6969&amp;tr=udp%3A%2F%2Fexodus.desync.com%3A6969","seeders":1,"leechers":0,"uploader":"Zen_Bud","files":-1,"time":1277370409,"description":"General\nComplete name                    : Surrogates 2009 .SWESUB.DVDRip.XviD-Zen_Bud.avi\nFormat                           : AVI\nFormat/Info                      : Audio Video Interleave\nFile size                        : 703 MiB\nDuration                         : 1h 28mn\nOverall bit rate                 : 1 109 Kbps\n\nVideo\n\nFormat                           : MPEG-4 Visual\nCodec ID/Hint                    : XviD\nDuration                         : 1h 28mn\nBit rate                         : 968 Kbps\nWidth                            : 720 pixels\nHeight                           : 356 pixels\nDisplay aspect ratio             : 2.35:1\nBits/(Pixel*Frame)               : 0.157\nStream size                      : 613 MiB (87%)\nWriting library                  : XviD 1.1.2 (UTC 2006-11-01)\n\nAudio\n\nFormat                           : MPEG Audio\nCodec ID/Hint                    : MP3\nDuration                         : 1h 28mn\nBit rate                         : 128 Kbps\nChannel(s)                       : 2 channels\nSampling rate                    : 48.0 KHz\nStream size                      : 81.1 MiB (12%)\nWriting library                  : LAME3.98\n\n","torrent":{"xt":"urn:btih:9564cc1c2429b70dd12665f2e6506b886563bb14","amp;dn":"Surrogates+2009+.SWESUB.DVDRip.XviD-Zen_Bud","amp;tr":["udp%3A%2F%2Ftracker.openbittorrent.com%3A80","udp%3A%2F%2Fopen.demonii.com%3A1337","udp%3A%2F%2Ftracker.coppersurfer.tk%3A6969","udp%3A%2F%2Fexodus.desync.com%3A6969"],"infoHash":"9564cc1c2429b70dd12665f2e6506b886563bb14","infoHashBuffer":{"type":"Buffer","data":[149,100,204,28,36,41,183,13,209,38,101,242,230,80,107,136,101,99,187,20]},"announce":[],"urlList":[]}}